<svg width="135" height="42" viewBox="0 0 135 42" fill="none" xmlns="http://www.w3.org/2000/svg">
<path d="M18.6226 8.00777C19.4749 7.93057 20.268 8.43536 20.4858 9.23266L21.2668 12.0902C11.3725 12.369 4.67919 18.723 4.26047 28.1885L1.25767 27.3871C0.428658 27.1657 -0.0865746 26.3877 0.0120411 25.564C1.11317 16.3834 9.0294 8.87971 18.6226 8.00777ZM21.7061 13.6955L26.9718 32.9672C27.0101 33.1072 27.0094 33.2544 26.9697 33.3941C26.93 33.5337 26.8528 33.6608 26.7458 33.7625C26.6388 33.8643 26.5059 33.937 26.3604 33.9735C26.2149 34.0099 26.062 34.0088 25.9171 33.9702L5.93009 28.6329C6.15528 19.7514 12.4209 13.797 21.7061 13.6975V13.6955ZM20.2506 29.126C20.5844 29.126 20.9106 29.0306 21.1882 28.8521C21.4657 28.6735 21.682 28.4197 21.8097 28.1228C21.9374 27.8258 21.9708 27.4991 21.9057 27.1839C21.8406 26.8686 21.6799 26.5791 21.4439 26.3518C21.2079 26.1245 20.9072 25.9698 20.5798 25.9071C20.2525 25.8444 19.9132 25.8765 19.6048 25.9995C19.2964 26.1225 19.0329 26.3308 18.8474 26.5981C18.662 26.8653 18.563 27.1795 18.563 27.5009C18.563 27.9319 18.7408 28.3452 19.0573 28.65C19.3738 28.9547 19.803 29.126 20.2506 29.126ZM17.7193 21.4069C18.053 21.4069 18.3793 21.3116 18.6568 21.133C18.9343 20.9545 19.1506 20.7007 19.2784 20.4037C19.4061 20.1068 19.4395 19.78 19.3744 19.4648C19.3093 19.1496 19.1486 18.86 18.9125 18.6328C18.6765 18.4055 18.3758 18.2507 18.0485 18.188C17.7211 18.1253 17.3818 18.1575 17.0735 18.2805C16.7651 18.4035 16.5015 18.6118 16.3161 18.879C16.1307 19.1463 16.0317 19.4604 16.0317 19.7818C16.0317 20.2128 16.2095 20.6262 16.526 20.9309C16.8425 21.2357 17.2717 21.4069 17.7193 21.4069ZM12.2347 26.6884C12.5685 26.6884 12.8947 26.5931 13.1723 26.4145C13.4498 26.2359 13.6661 25.9821 13.7938 25.6852C13.9215 25.3882 13.9549 25.0615 13.8898 24.7463C13.8247 24.431 13.664 24.1415 13.428 23.9142C13.192 23.6869 12.8913 23.5322 12.5639 23.4695C12.2366 23.4068 11.8973 23.4389 11.5889 23.5619C11.2805 23.6849 11.017 23.8932 10.8315 24.1605C10.6461 24.4277 10.5471 24.7419 10.5471 25.0633C10.5471 25.4943 10.7249 25.9076 11.0414 26.2124C11.3579 26.5172 11.7871 26.6884 12.2347 26.6884Z" fill="#E8FCE7"/>
<path d="M133.239 14.4257C133.756 14.4257 134.178 14.601 134.507 14.9516C134.836 15.2789 135 15.6996 135 16.2139V31.3611C135 31.8754 134.836 32.3078 134.507 32.6584C134.178 32.9857 133.756 33.1493 133.239 33.1493C132.746 33.1493 132.323 32.9857 131.971 32.6584C131.642 32.3078 131.478 31.8754 131.478 31.3611V28.8366L132.218 28.9418C132.218 29.3625 132.042 29.83 131.689 30.3443C131.361 30.8585 130.903 31.3611 130.316 31.852C129.729 32.3195 129.036 32.7169 128.238 33.0441C127.44 33.348 126.583 33.5 125.667 33.5C124.047 33.5 122.591 33.0909 121.3 32.2728C120.009 31.4312 118.987 30.2858 118.236 28.8366C117.485 27.3873 117.109 25.7393 117.109 23.8927C117.109 21.9993 117.485 20.3396 118.236 18.9137C118.987 17.4645 119.997 16.3307 121.265 15.5126C122.556 14.6945 123.988 14.2854 125.561 14.2854C126.571 14.2854 127.498 14.449 128.344 14.7763C129.212 15.1035 129.964 15.5243 130.598 16.0386C131.232 16.5528 131.713 17.1021 132.042 17.6865C132.394 18.2475 132.57 18.7852 132.57 19.2994L131.478 19.4046V16.2139C131.478 15.723 131.642 15.3022 131.971 14.9516C132.323 14.601 132.746 14.4257 133.239 14.4257ZM126.054 30.2742C127.158 30.2742 128.132 29.9937 128.978 29.4326C129.823 28.8716 130.48 28.1119 130.95 27.1535C131.419 26.1718 131.654 25.0848 131.654 23.8927C131.654 22.6772 131.419 21.5902 130.95 20.6318C130.48 19.6734 129.823 18.9137 128.978 18.3527C128.132 17.7917 127.158 17.5112 126.054 17.5112C124.974 17.5112 124.012 17.7917 123.167 18.3527C122.345 18.9137 121.687 19.6734 121.194 20.6318C120.725 21.5902 120.49 22.6772 120.49 23.8927C120.49 25.0848 120.725 26.1718 121.194 27.1535C121.687 28.1119 122.345 28.8716 123.167 29.4326C124.012 29.9937 124.974 30.2742 126.054 30.2742Z" fill="#E8FCE7"/>
<path d="M113.322 31.3611C113.322 31.8754 113.158 32.3078 112.829 32.6585C112.501 32.9857 112.078 33.1493 111.561 33.1493C111.068 33.1493 110.646 32.9857 110.294 32.6585C109.965 32.3078 109.8 31.8754 109.8 31.3611V16.3541C109.8 15.8399 109.965 15.4191 110.294 15.0919C110.646 14.7412 111.068 14.5659 111.561 14.5659C112.078 14.5659 112.501 14.7412 112.829 15.0919C113.158 15.4191 113.322 15.8399 113.322 16.3541V31.3611ZM111.526 12.2517C110.845 12.2517 110.352 12.1349 110.047 11.9011C109.742 11.644 109.589 11.2232 109.589 10.6388V10.0778C109.589 9.49345 109.753 9.08438 110.082 8.85063C110.411 8.61688 110.904 8.5 111.561 8.5C112.266 8.5 112.771 8.62856 113.076 8.88569C113.381 9.11945 113.534 9.51683 113.534 10.0778V10.6388C113.534 11.2466 113.369 11.6674 113.041 11.9011C112.735 12.1349 112.231 12.2517 111.526 12.2517Z" fill="#E8FCE7"/>
<path d="M98.7825 14.2854C100.45 14.2854 101.741 14.636 102.657 15.3373C103.572 16.0152 104.206 16.9385 104.558 18.1073C104.934 19.2527 105.122 20.5383 105.122 21.9642V31.3611C105.122 31.8754 104.946 32.3078 104.594 32.6584C104.265 32.9857 103.854 33.1493 103.361 33.1493C102.844 33.1493 102.422 32.9857 102.093 32.6584C101.764 32.3078 101.6 31.8754 101.6 31.3611V21.9993C101.6 21.1578 101.483 20.4097 101.248 19.7552C101.013 19.0774 100.602 18.5397 100.015 18.1423C99.4517 17.7216 98.6534 17.5112 97.6203 17.5112C96.6576 17.5112 95.8124 17.7216 95.0845 18.1423C94.3567 18.5397 93.7814 19.0774 93.3588 19.7552C92.9597 20.4097 92.7601 21.1578 92.7601 21.9993V31.3611C92.7601 31.8754 92.584 32.3078 92.2318 32.6584C91.9031 32.9857 91.4922 33.1493 90.9992 33.1493C90.4826 33.1493 90.06 32.9857 89.7313 32.6584C89.4026 32.3078 89.2382 31.8754 89.2382 31.3611V16.4944C89.2382 15.9801 89.4026 15.5594 89.7313 15.2321C90.06 14.8815 90.4826 14.7062 90.9992 14.7062C91.4922 14.7062 91.9031 14.8815 92.2318 15.2321C92.584 15.5594 92.7601 15.9801 92.7601 16.4944V18.4579L92.1262 18.8085C92.2905 18.2943 92.5723 17.78 92.9714 17.2658C93.394 16.7281 93.8988 16.2372 94.4858 15.7931C95.0728 15.3256 95.7302 14.9633 96.4581 14.7062C97.1859 14.4257 97.9607 14.2854 98.7825 14.2854Z" fill="#E8FCE7"/>
<path d="M82.5434 14.4257C83.0599 14.4257 83.4825 14.601 83.8112 14.9516C84.1399 15.2789 84.3043 15.6996 84.3043 16.2139V31.3611C84.3043 31.8754 84.1399 32.3078 83.8112 32.6584C83.4825 32.9857 83.0599 33.1493 82.5434 33.1493C82.0503 33.1493 81.6277 32.9857 81.2755 32.6584C80.9468 32.3078 80.7824 31.8754 80.7824 31.3611V28.8366L81.522 28.9418C81.522 29.3625 81.3459 29.83 80.9937 30.3443C80.665 30.8585 80.2072 31.3611 79.6202 31.852C79.0332 32.3195 78.3406 32.7169 77.5423 33.0441C76.744 33.348 75.887 33.5 74.9713 33.5C73.3513 33.5 71.8956 33.0909 70.6042 32.2728C69.3129 31.4312 68.2915 30.2858 67.5402 28.8366C66.7888 27.3873 66.4132 25.7393 66.4132 23.8927C66.4132 21.9993 66.7888 20.3396 67.5402 18.9137C68.2915 17.4645 69.3011 16.3307 70.569 15.5126C71.8603 14.6945 73.2926 14.2854 74.8657 14.2854C75.8753 14.2854 76.8027 14.449 77.648 14.7763C78.5167 15.1035 79.268 15.5243 79.902 16.0386C80.5359 16.5528 81.0172 17.1021 81.3459 17.6865C81.6981 18.2475 81.8742 18.7852 81.8742 19.2994L80.7824 19.4046V16.2139C80.7824 15.723 80.9468 15.3022 81.2755 14.9516C81.6277 14.601 82.0503 14.4257 82.5434 14.4257ZM75.3587 30.2742C76.4623 30.2742 77.4366 29.9937 78.2819 29.4326C79.1271 28.8716 79.7846 28.1119 80.2541 27.1535C80.7237 26.1718 80.9585 25.0848 80.9585 23.8927C80.9585 22.6772 80.7237 21.5902 80.2541 20.6318C79.7846 19.6734 79.1271 18.9137 78.2819 18.3527C77.4366 17.7917 76.4623 17.5112 75.3587 17.5112C74.2787 17.5112 73.3161 17.7917 72.4708 18.3527C71.649 18.9137 70.9916 19.6734 70.4986 20.6318C70.029 21.5902 69.7942 22.6772 69.7942 23.8927C69.7942 25.0848 70.029 26.1718 70.4986 27.1535C70.9916 28.1119 71.649 28.8716 72.4708 29.4326C73.3161 29.9937 74.2787 30.2742 75.3587 30.2742Z" fill="#E8FCE7"/>
<path d="M44.2977 14.3906C46.0352 14.3906 47.3735 14.8231 48.3127 15.688C49.2518 16.5295 49.874 17.6749 50.1793 19.1241L49.6158 18.9488L49.8623 18.3878C50.1675 17.7801 50.6254 17.1723 51.2358 16.5645C51.8698 15.9334 52.6211 15.4191 53.4898 15.0218C54.3586 14.601 55.286 14.3906 56.2721 14.3906C57.8922 14.3906 59.1483 14.7413 60.0405 15.4425C60.9327 16.1204 61.5549 17.0437 61.9071 18.2125C62.2593 19.3579 62.4354 20.6435 62.4354 22.0694V31.3611C62.4354 31.8754 62.271 32.3079 61.9423 32.6585C61.6136 32.9857 61.191 33.1494 60.6745 33.1494C60.1814 33.1494 59.7588 32.9857 59.4066 32.6585C59.0779 32.3079 58.9135 31.8754 58.9135 31.3611V22.1045C58.9135 21.2864 58.7961 20.5383 58.5613 19.8605C58.35 19.1826 57.9626 18.6449 57.3991 18.2476C56.8591 17.8268 56.1078 17.6164 55.1451 17.6164C54.2294 17.6164 53.4077 17.8268 52.6798 18.2476C51.9754 18.6449 51.4237 19.1826 51.0245 19.8605C50.6254 20.5383 50.4258 21.2864 50.4258 22.1045V31.3611C50.4258 31.8754 50.2615 32.3079 49.9327 32.6585C49.604 32.9857 49.1814 33.1494 48.6649 33.1494C48.1483 33.1494 47.7257 32.9857 47.397 32.6585C47.0683 32.3079 46.9039 31.8754 46.9039 31.3611V22.0694C46.9039 21.2513 46.7865 20.5033 46.5517 19.8254C46.3404 19.1475 45.9648 18.6099 45.4247 18.2125C44.8847 17.8151 44.1334 17.6164 43.1707 17.6164C42.2551 17.6164 41.445 17.8151 40.7407 18.2125C40.0363 18.6099 39.4845 19.1475 39.0854 19.8254C38.7097 20.5033 38.5219 21.2513 38.5219 22.0694V31.3611C38.5219 31.8754 38.3458 32.3079 37.9936 32.6585C37.6649 32.9857 37.254 33.1494 36.7609 33.1494C36.2444 33.1494 35.8218 32.9857 35.4931 32.6585C35.1644 32.3079 35 31.8754 35 31.3611V16.4944C35 15.9802 35.1644 15.5594 35.4931 15.2321C35.8218 14.8815 36.2444 14.7062 36.7609 14.7062C37.254 14.7062 37.6649 14.8815 37.9936 15.2321C38.3458 15.5594 38.5219 15.9802 38.5219 16.4944V18.5631L37.8527 18.9488C38.0171 18.4346 38.2871 17.9086 38.6627 17.371C39.0384 16.8334 39.508 16.3425 40.0715 15.8983C40.6585 15.4542 41.3042 15.0919 42.0085 14.8114C42.7129 14.5309 43.476 14.3906 44.2977 14.3906Z" fill="#E8FCE7"/>
</svg>
